{
    "asset" : {
        "generator" : "Khronos glTF Blender I/O v1.7.33",
        "version" : "2.0"
    },
    "extensionsUsed" : [
        "KHR_materials_transmission"
    ],
    "scene" : 0,
    "scenes" : [
        {
            "name" : "Scene",
            "nodes" : [
                0
            ]
        }
    ],
    "nodes" : [
        {
            "mesh" : 0,
            "name" : "WebPageModel",
            "scale" : [
                0.47781243920326233,
                0.6985953450202942,
                0.47781243920326233
            ],
            "translation" : [
                0,
                1.5003629922866821,
                0
            ]
        }
    ],
    "materials" : [
        {
            "doubleSided" : true,
            "name" : "Browser",
            "pbrMetallicRoughness" : {
                "baseColorFactor" : [
                    0.3967553377151489,
                    0.4178851246833801,
                    0.5149176120758057,
                    1
                ],
                "metallicFactor" : 0,
                "roughnessFactor" : 0.5
            }
        },
        {
            "doubleSided" : true,
            "name" : "Pink",
            "pbrMetallicRoughness" : {
                "baseColorFactor" : [
                    0.8549932241439819,
                    0.017641820013523102,
                    0.09989877045154572,
                    1
                ],
                "metallicFactor" : 0
            }
        },
        {
            "doubleSided" : true,
            "extensions" : {
                "KHR_materials_transmission" : {
                    "transmissionFactor" : 1
                }
            },
            "name" : "Panel Glass",
            "pbrMetallicRoughness" : {
                "baseColorFactor" : [
                    0.800000011920929,
                    0.800000011920929,
                    0.800000011920929,
                    0
                ],
                "metallicFactor" : 0,
                "roughnessFactor" : 0
            }
        },
        {
            "doubleSided" : true,
            "name" : "White",
            "pbrMetallicRoughness" : {
                "baseColorFactor" : [
                    0.800000011920929,
                    0.800000011920929,
                    0.800000011920929,
                    1
                ],
                "metallicFactor" : 0,
                "roughnessFactor" : 0.5
            }
        }
    ],
    "meshes" : [
        {
            "name" : "Polygon.001",
            "primitives" : [
                {
                    "attributes" : {
                        "POSITION" : 0,
                        "NORMAL" : 1,
                        "TEXCOORD_0" : 2
                    },
                    "indices" : 3,
                    "material" : 0
                },
                {
                    "attributes" : {
                        "POSITION" : 4,
                        "NORMAL" : 5,
                        "TEXCOORD_0" : 6
                    },
                    "indices" : 7,
                    "material" : 1
                },
                {
                    "attributes" : {
                        "POSITION" : 8,
                        "NORMAL" : 9,
                        "TEXCOORD_0" : 10
                    },
                    "indices" : 11,
                    "material" : 2
                },
                {
                    "attributes" : {
                        "POSITION" : 12,
                        "NORMAL" : 13,
                        "TEXCOORD_0" : 14
                    },
                    "indices" : 15,
                    "material" : 3
                }
            ]
        }
    ],
    "accessors" : [
        {
            "bufferView" : 0,
            "componentType" : 5126,
            "count" : 444,
            "max" : [
                2.0928711891174316,
                -0.0462607741355896,
                1.4650098085403442
            ],
            "min" : [
                -2.0928711891174316,
                -0.302947998046875,
                -1.4650098085403442
            ],
            "type" : "VEC3"
        },
        {
            "bufferView" : 1,
            "componentType" : 5126,
            "count" : 444,
            "type" : "VEC3"
        },
        {
            "bufferView" : 2,
            "componentType" : 5126,
            "count" : 444,
            "type" : "VEC2"
        },
        {
            "bufferView" : 3,
            "componentType" : 5123,
            "count" : 840,
            "type" : "SCALAR"
        },
        {
            "bufferView" : 4,
            "componentType" : 5126,
            "count" : 4416,
            "max" : [
                1.2151116132736206,
                0.302947998046875,
                1.191890001296997
            ],
            "min" : [
                -1.8319072723388672,
                -0.08150783181190491,
                -1.2494410276412964
            ],
            "type" : "VEC3"
        },
        {
            "bufferView" : 5,
            "componentType" : 5126,
            "count" : 4416,
            "type" : "VEC3"
        },
        {
            "bufferView" : 6,
            "componentType" : 5126,
            "count" : 4416,
            "type" : "VEC2"
        },
        {
            "bufferView" : 7,
            "componentType" : 5123,
            "count" : 7632,
            "type" : "SCALAR"
        },
        {
            "bufferView" : 8,
            "componentType" : 5126,
            "count" : 384,
            "max" : [
                0.679915189743042,
                0.2390815019607544,
                0.656693696975708
            ],
            "min" : [
                -0.5565775632858276,
                0.22476708889007568,
                -0.5797990560531616
            ],
            "type" : "VEC3"
        },
        {
            "bufferView" : 9,
            "componentType" : 5126,
            "count" : 384,
            "type" : "VEC3"
        },
        {
            "bufferView" : 10,
            "componentType" : 5126,
            "count" : 384,
            "type" : "VEC2"
        },
        {
            "bufferView" : 11,
            "componentType" : 5123,
            "count" : 756,
            "type" : "SCALAR"
        },
        {
            "bufferView" : 12,
            "componentType" : 5126,
            "count" : 96,
            "max" : [
                1.9442462921142578,
                -0.12729300558567047,
                1.338794469833374
            ],
            "min" : [
                -1.9442462921142578,
                -0.18381845951080322,
                -1.3353971242904663
            ],
            "type" : "VEC3"
        },
        {
            "bufferView" : 13,
            "componentType" : 5126,
            "count" : 96,
            "type" : "VEC3"
        },
        {
            "bufferView" : 14,
            "componentType" : 5126,
            "count" : 96,
            "type" : "VEC2"
        },
        {
            "bufferView" : 15,
            "componentType" : 5123,
            "count" : 144,
            "type" : "SCALAR"
        }
    ],
    "bufferViews" : [
        {
            "buffer" : 0,
            "byteLength" : 5328,
            "byteOffset" : 0
        },
        {
            "buffer" : 0,
            "byteLength" : 5328,
            "byteOffset" : 5328
        },
        {
            "buffer" : 0,
            "byteLength" : 3552,
            "byteOffset" : 10656
        },
        {
            "buffer" : 0,
            "byteLength" : 1680,
            "byteOffset" : 14208
        },
        {
            "buffer" : 0,
            "byteLength" : 52992,
            "byteOffset" : 15888
        },
        {
            "buffer" : 0,
            "byteLength" : 52992,
            "byteOffset" : 68880
        },
        {
            "buffer" : 0,
            "byteLength" : 35328,
            "byteOffset" : 121872
        },
        {
            "buffer" : 0,
            "byteLength" : 15264,
            "byteOffset" : 157200
        },
        {
            "buffer" : 0,
            "byteLength" : 4608,
            "byteOffset" : 172464
        },
        {
            "buffer" : 0,
            "byteLength" : 4608,
            "byteOffset" : 177072
        },
        {
            "buffer" : 0,
            "byteLength" : 3072,
            "byteOffset" : 181680
        },
        {
            "buffer" : 0,
            "byteLength" : 1512,
            "byteOffset" : 184752
        },
        {
            "buffer" : 0,
            "byteLength" : 1152,
            "byteOffset" : 186264
        },
        {
            "buffer" : 0,
            "byteLength" : 1152,
            "byteOffset" : 187416
        },
        {
            "buffer" : 0,
            "byteLength" : 768,
            "byteOffset" : 188568
        },
        {
            "buffer" : 0,
            "byteLength" : 288,
            "byteOffset" : 189336
        }
    ],
    "buffers" : [
        {
            "byteLength" : 189624,
            "uri" : "data:application/octet-stream;base64,"
        }
    ]
}
